<mxfile host="app.diagrams.net" modified="2023-03-29T15:16:50.953Z" agent="Mozilla/5.0 (Windows NT 10.0; Win64; x64) AppleWebKit/537.36 (KHTML, like Gecko) Chrome/111.0.0.0 Safari/537.36" etag="KI6JcS3TZJC-0BIJT0uG" version="21.1.1" type="device">
  <diagram name="P치gina-1" id="rluh21VO24RdoWByoLOr">
    <mxGraphModel dx="1621" dy="438" grid="1" gridSize="10" guides="1" tooltips="1" connect="1" arrows="1" fold="1" page="1" pageScale="1" pageWidth="827" pageHeight="1169" math="0" shadow="0">
      <root>
        <mxCell id="0" />
        <mxCell id="1" parent="0" />
        <mxCell id="_8dAansbCoHwlGRNZNpQ-17" value="" style="endArrow=block;endSize=16;endFill=0;html=1;rounded=0;edgeStyle=elbowEdgeStyle;exitX=0.5;exitY=0;exitDx=0;exitDy=0;elbow=vertical;" parent="1" source="_8dAansbCoHwlGRNZNpQ-55" target="_8dAansbCoHwlGRNZNpQ-37" edge="1">
          <mxGeometry width="160" relative="1" as="geometry">
            <mxPoint x="300" y="400" as="sourcePoint" />
            <mxPoint x="280" y="334" as="targetPoint" />
            <Array as="points" />
          </mxGeometry>
        </mxCell>
        <mxCell id="_8dAansbCoHwlGRNZNpQ-36" value="contrase침a con al menos 6 caracteres" style="ellipse;shape=umlEntity;whiteSpace=wrap;html=1;" parent="1" vertex="1">
          <mxGeometry x="400" y="110" width="80" height="80" as="geometry" />
        </mxCell>
        <mxCell id="_8dAansbCoHwlGRNZNpQ-37" value="&lt;p style=&quot;margin:0px;margin-top:4px;text-align:center;text-decoration:underline;&quot;&gt;&lt;b&gt;Usuarios(abstracta)&lt;/b&gt;&lt;/p&gt;&lt;hr&gt;&lt;p style=&quot;margin:0px;margin-left:8px;&quot;&gt;NickName : String&lt;br&gt;Contrase침a : String&lt;br&gt;Nombre : String&lt;/p&gt;Descripci칩n : String&lt;br&gt;&lt;p style=&quot;margin:0px;margin-left:8px;&quot;&gt;&lt;br&gt;&lt;/p&gt;" style="verticalAlign=top;align=left;overflow=fill;fontSize=12;fontFamily=Helvetica;html=1;whiteSpace=wrap;" parent="1" vertex="1">
          <mxGeometry x="360" y="210" width="160" height="93" as="geometry" />
        </mxCell>
        <mxCell id="_8dAansbCoHwlGRNZNpQ-54" value="&lt;p style=&quot;margin:0px;margin-top:4px;text-align:center;text-decoration:underline;&quot;&gt;&lt;b&gt;Profesores&lt;/b&gt;&lt;/p&gt;&lt;hr&gt;&lt;p style=&quot;margin:0px;margin-left:8px;&quot;&gt;Instituto : String&lt;/p&gt;&lt;p style=&quot;margin:0px;margin-left:8px;&quot;&gt;&lt;br&gt;&lt;/p&gt;&lt;p style=&quot;margin:0px;margin-left:8px;&quot;&gt;&lt;br&gt;&lt;/p&gt;&lt;p style=&quot;margin:0px;margin-left:8px;&quot;&gt;&lt;br&gt;&lt;/p&gt;" style="verticalAlign=top;align=left;overflow=fill;fontSize=12;fontFamily=Helvetica;html=1;whiteSpace=wrap;" parent="1" vertex="1">
          <mxGeometry x="230" y="395" width="160" height="90" as="geometry" />
        </mxCell>
        <mxCell id="_8dAansbCoHwlGRNZNpQ-55" value="&lt;p style=&quot;margin:0px;margin-top:4px;text-align:center;text-decoration:underline;&quot;&gt;&lt;b&gt;Estudiantes&lt;/b&gt;&lt;/p&gt;&lt;hr&gt;&lt;p style=&quot;margin:0px;margin-left:8px;&quot;&gt;Pais : String&lt;/p&gt;&lt;p style=&quot;margin:0px;margin-left:8px;&quot;&gt;Fecha de nacimiento : Date&lt;/p&gt;" style="verticalAlign=top;align=left;overflow=fill;fontSize=12;fontFamily=Helvetica;html=1;whiteSpace=wrap;" parent="1" vertex="1">
          <mxGeometry x="440" y="395" width="160" height="90" as="geometry" />
        </mxCell>
        <mxCell id="_8dAansbCoHwlGRNZNpQ-59" value="" style="endArrow=none;endFill=0;endSize=24;html=1;rounded=0;elbow=vertical;exitX=0;exitY=0.5;exitDx=0;exitDy=0;shadow=0;jumpStyle=none;targetPerimeterSpacing=1;sourcePerimeterSpacing=1;startSize=1;entryX=1;entryY=0.5;entryDx=0;entryDy=0;" parent="1" source="_8dAansbCoHwlGRNZNpQ-54" target="KlgdOsuP6ALsgnAv96WD-2" edge="1">
          <mxGeometry width="160" relative="1" as="geometry">
            <mxPoint x="440" y="294" as="sourcePoint" />
            <mxPoint x="120" y="400" as="targetPoint" />
            <Array as="points" />
          </mxGeometry>
        </mxCell>
        <mxCell id="zCQgNo67m5IxYb0x_oaF-34" value="&lt;b&gt;&lt;font style=&quot;font-size: 13px;&quot;&gt;*&lt;/font&gt;&lt;/b&gt;" style="edgeLabel;html=1;align=center;verticalAlign=middle;resizable=0;points=[];" parent="_8dAansbCoHwlGRNZNpQ-59" vertex="1" connectable="0">
          <mxGeometry x="-0.7086" relative="1" as="geometry">
            <mxPoint y="-10" as="offset" />
          </mxGeometry>
        </mxCell>
        <mxCell id="zCQgNo67m5IxYb0x_oaF-35" value="&lt;b&gt;&lt;font style=&quot;font-size: 13px;&quot;&gt;*&lt;/font&gt;&lt;/b&gt;" style="edgeLabel;html=1;align=center;verticalAlign=middle;resizable=0;points=[];" parent="_8dAansbCoHwlGRNZNpQ-59" vertex="1" connectable="0">
          <mxGeometry x="0.8247" y="1" relative="1" as="geometry">
            <mxPoint y="-11" as="offset" />
          </mxGeometry>
        </mxCell>
        <mxCell id="_8dAansbCoHwlGRNZNpQ-70" value="&lt;p style=&quot;margin:0px;margin-top:4px;text-align:center;text-decoration:underline;&quot;&gt;&lt;b&gt;Cursos&lt;/b&gt;&lt;/p&gt;&lt;hr&gt;&lt;p style=&quot;margin:0px;margin-left:8px;&quot;&gt;Nombre : String&lt;/p&gt;&lt;p style=&quot;margin:0px;margin-left:8px;&quot;&gt;Dificultad : NivelDif&lt;/p&gt;" style="verticalAlign=top;align=left;overflow=fill;fontSize=12;fontFamily=Helvetica;html=1;whiteSpace=wrap;" parent="1" vertex="1">
          <mxGeometry x="60" y="585" width="160" height="90" as="geometry" />
        </mxCell>
        <mxCell id="_8dAansbCoHwlGRNZNpQ-96" value="" style="endArrow=block;endSize=16;endFill=0;html=1;rounded=0;edgeStyle=elbowEdgeStyle;exitX=0.5;exitY=0;exitDx=0;exitDy=0;elbow=vertical;" parent="1" source="_8dAansbCoHwlGRNZNpQ-54" target="_8dAansbCoHwlGRNZNpQ-37" edge="1">
          <mxGeometry width="160" relative="1" as="geometry">
            <mxPoint x="160" y="380" as="sourcePoint" />
            <mxPoint x="200" y="350" as="targetPoint" />
          </mxGeometry>
        </mxCell>
        <mxCell id="_8dAansbCoHwlGRNZNpQ-99" value="" style="edgeStyle=none;orthogonalLoop=1;jettySize=auto;html=1;rounded=0;elbow=vertical;endArrow=none;endFill=0;exitX=0.75;exitY=1;exitDx=0;exitDy=0;entryX=0.75;entryY=1;entryDx=0;entryDy=0;" parent="1" source="_8dAansbCoHwlGRNZNpQ-70" target="_8dAansbCoHwlGRNZNpQ-55" edge="1">
          <mxGeometry width="80" relative="1" as="geometry">
            <mxPoint x="-150" y="580" as="sourcePoint" />
            <mxPoint x="250" y="560" as="targetPoint" />
            <Array as="points">
              <mxPoint x="180" y="710" />
              <mxPoint x="340" y="710" />
              <mxPoint x="560" y="710" />
            </Array>
          </mxGeometry>
        </mxCell>
        <mxCell id="_8dAansbCoHwlGRNZNpQ-100" value="&lt;b&gt;&amp;lt;Se inscriben&lt;/b&gt;" style="edgeLabel;html=1;align=center;verticalAlign=middle;resizable=0;points=[];" parent="_8dAansbCoHwlGRNZNpQ-99" vertex="1" connectable="0">
          <mxGeometry x="0.0126" y="-2" relative="1" as="geometry">
            <mxPoint x="-65" y="-12" as="offset" />
          </mxGeometry>
        </mxCell>
        <mxCell id="_8dAansbCoHwlGRNZNpQ-101" value="&lt;b style=&quot;font-size: 13px;&quot;&gt;*&lt;br&gt;&lt;/b&gt;" style="edgeLabel;html=1;align=center;verticalAlign=middle;resizable=0;points=[];" parent="_8dAansbCoHwlGRNZNpQ-99" vertex="1" connectable="0">
          <mxGeometry x="0.9369" y="-1" relative="1" as="geometry">
            <mxPoint x="-23" y="-5" as="offset" />
          </mxGeometry>
        </mxCell>
        <mxCell id="_8dAansbCoHwlGRNZNpQ-102" value="&lt;b&gt;&lt;font style=&quot;font-size: 15px;&quot;&gt;*&lt;/font&gt;&lt;br&gt;&lt;/b&gt;" style="edgeLabel;html=1;align=center;verticalAlign=middle;resizable=0;points=[];" parent="_8dAansbCoHwlGRNZNpQ-99" vertex="1" connectable="0">
          <mxGeometry x="-0.9571" y="1" relative="1" as="geometry">
            <mxPoint x="9" as="offset" />
          </mxGeometry>
        </mxCell>
        <mxCell id="_8dAansbCoHwlGRNZNpQ-105" value="" style="edgeStyle=none;orthogonalLoop=1;jettySize=auto;html=1;rounded=0;elbow=vertical;dashed=1;endArrow=none;endFill=0;entryX=0.5;entryY=0;entryDx=0;entryDy=0;" parent="1" target="_8dAansbCoHwlGRNZNpQ-106" edge="1">
          <mxGeometry width="80" relative="1" as="geometry">
            <mxPoint x="290" y="710" as="sourcePoint" />
            <mxPoint x="130" y="680" as="targetPoint" />
            <Array as="points" />
          </mxGeometry>
        </mxCell>
        <mxCell id="_8dAansbCoHwlGRNZNpQ-106" value="&lt;p style=&quot;margin:0px;margin-top:4px;text-align:center;text-decoration:underline;&quot;&gt;&lt;b&gt;C-E&lt;/b&gt;&lt;/p&gt;&lt;hr&gt;&lt;p style=&quot;margin:0px;margin-left:8px;&quot;&gt;&lt;span style=&quot;background-color: initial;&quot;&gt;Fecha inscripto : String&lt;/span&gt;&lt;/p&gt;&lt;p style=&quot;margin:0px;margin-left:8px;&quot;&gt;&lt;span style=&quot;background-color: initial;&quot;&gt;Aprobado : Bool&lt;/span&gt;&lt;/p&gt;&lt;p style=&quot;margin:0px;margin-left:8px;&quot;&gt;&lt;span style=&quot;background-color: initial;&quot;&gt;&lt;br&gt;&lt;/span&gt;&lt;/p&gt;&lt;p style=&quot;margin:0px;margin-left:8px;&quot;&gt;&lt;br&gt;&lt;/p&gt;" style="verticalAlign=top;align=left;overflow=fill;fontSize=12;fontFamily=Helvetica;html=1;whiteSpace=wrap;" parent="1" vertex="1">
          <mxGeometry x="210" y="770" width="160" height="90" as="geometry" />
        </mxCell>
        <mxCell id="_8dAansbCoHwlGRNZNpQ-122" value="&lt;p style=&quot;margin:0px;margin-top:4px;text-align:center;text-decoration:underline;&quot;&gt;&lt;b&gt;Lecciones&lt;/b&gt;&lt;/p&gt;&lt;hr&gt;&lt;p style=&quot;margin:0px;margin-left:8px;&quot;&gt;Tema : Sring&lt;/p&gt;&lt;p style=&quot;margin:0px;margin-left:8px;&quot;&gt;Objetivo : String&lt;/p&gt;" style="verticalAlign=top;align=left;overflow=fill;fontSize=12;fontFamily=Helvetica;html=1;whiteSpace=wrap;" parent="1" vertex="1">
          <mxGeometry x="-140.00000000000003" y="770" width="160" height="90" as="geometry" />
        </mxCell>
        <mxCell id="_8dAansbCoHwlGRNZNpQ-126" value="&lt;p style=&quot;margin:0px;margin-top:4px;text-align:center;text-decoration:underline;&quot;&gt;&lt;b&gt;Ejercicios (abstracta)&lt;/b&gt;&lt;/p&gt;&lt;hr&gt;&lt;p style=&quot;margin:0px;margin-left:8px;&quot;&gt;Frase&lt;/p&gt;" style="verticalAlign=top;align=left;overflow=fill;fontSize=12;fontFamily=Helvetica;html=1;whiteSpace=wrap;" parent="1" vertex="1">
          <mxGeometry x="-310" y="970" width="177" height="89" as="geometry" />
        </mxCell>
        <mxCell id="_8dAansbCoHwlGRNZNpQ-139" value="El estudiante aprueba si el progreso de cada leccion finalizo&lt;br&gt;" style="ellipse;shape=umlEntity;whiteSpace=wrap;html=1;" parent="1" vertex="1">
          <mxGeometry x="630" y="320" width="100" height="106" as="geometry" />
        </mxCell>
        <mxCell id="zCQgNo67m5IxYb0x_oaF-10" style="edgeStyle=orthogonalEdgeStyle;rounded=0;orthogonalLoop=1;jettySize=auto;html=1;endArrow=block;endFill=0;endSize=12;" parent="1" source="_8dAansbCoHwlGRNZNpQ-140" target="_8dAansbCoHwlGRNZNpQ-126" edge="1">
          <mxGeometry relative="1" as="geometry">
            <mxPoint x="-210" y="1060" as="targetPoint" />
            <Array as="points">
              <mxPoint x="-230" y="1220" />
              <mxPoint x="-210" y="1220" />
            </Array>
          </mxGeometry>
        </mxCell>
        <mxCell id="_8dAansbCoHwlGRNZNpQ-140" value="&lt;p style=&quot;margin:0px;margin-top:4px;text-align:center;text-decoration:underline;&quot;&gt;&lt;b&gt;Traducir&lt;/b&gt;&lt;/p&gt;&lt;hr&gt;&lt;p style=&quot;margin:0px;margin-left:8px;&quot;&gt;Soluci칩n : String&lt;/p&gt;" style="verticalAlign=top;align=left;overflow=fill;fontSize=12;fontFamily=Helvetica;html=1;whiteSpace=wrap;" parent="1" vertex="1">
          <mxGeometry x="-310" y="1240" width="160" height="90" as="geometry" />
        </mxCell>
        <mxCell id="zCQgNo67m5IxYb0x_oaF-11" style="edgeStyle=orthogonalEdgeStyle;rounded=0;orthogonalLoop=1;jettySize=auto;html=1;endArrow=block;endFill=0;endSize=12;exitX=0.5;exitY=0;exitDx=0;exitDy=0;" parent="1" source="_8dAansbCoHwlGRNZNpQ-141" target="_8dAansbCoHwlGRNZNpQ-126" edge="1">
          <mxGeometry relative="1" as="geometry">
            <mxPoint x="-210" y="1060" as="targetPoint" />
            <Array as="points">
              <mxPoint x="-60" y="1240" />
              <mxPoint x="-60" y="1220" />
              <mxPoint x="-210" y="1220" />
            </Array>
          </mxGeometry>
        </mxCell>
        <mxCell id="_8dAansbCoHwlGRNZNpQ-141" value="&lt;p style=&quot;margin:0px;margin-top:4px;text-align:center;text-decoration:underline;&quot;&gt;&lt;b&gt;Completar&amp;nbsp; Palabra&lt;/b&gt;&lt;/p&gt;&lt;hr&gt;&lt;p style=&quot;margin:0px;margin-left:8px;&quot;&gt;Soluci칩n[ *] : String&lt;/p&gt;" style="verticalAlign=top;align=left;overflow=fill;fontSize=12;fontFamily=Helvetica;html=1;whiteSpace=wrap;" parent="1" vertex="1">
          <mxGeometry x="-133" y="1240" width="160" height="90" as="geometry" />
        </mxCell>
        <mxCell id="KlgdOsuP6ALsgnAv96WD-2" value="&lt;p style=&quot;margin:0px;margin-top:4px;text-align:center;text-decoration:underline;&quot;&gt;&lt;b&gt;Idioma&lt;/b&gt;&lt;/p&gt;&lt;hr&gt;&lt;p style=&quot;margin:0px;margin-left:8px;&quot;&gt;nombre : String&lt;/p&gt;" style="verticalAlign=top;align=left;overflow=fill;fontSize=12;fontFamily=Helvetica;html=1;whiteSpace=wrap;" parent="1" vertex="1">
          <mxGeometry x="-65" y="395" width="160" height="90" as="geometry" />
        </mxCell>
        <mxCell id="KlgdOsuP6ALsgnAv96WD-3" value="" style="edgeStyle=none;orthogonalLoop=1;jettySize=auto;html=1;rounded=0;entryX=0.5;entryY=0;entryDx=0;entryDy=0;dashed=1;endArrow=none;endFill=0;" parent="1" target="KlgdOsuP6ALsgnAv96WD-16" edge="1">
          <mxGeometry width="80" relative="1" as="geometry">
            <mxPoint x="140" y="440" as="sourcePoint" />
            <mxPoint x="170" y="510" as="targetPoint" />
            <Array as="points" />
          </mxGeometry>
        </mxCell>
        <mxCell id="KlgdOsuP6ALsgnAv96WD-8" value="&lt;p style=&quot;margin:0px;margin-top:4px;text-align:center;text-decoration:underline;&quot;&gt;&lt;b&gt;&amp;lt;&amp;lt;enumeration&amp;gt;&amp;gt;&lt;/b&gt;&lt;/p&gt;&lt;p style=&quot;margin:0px;margin-top:4px;text-align:center;text-decoration:underline;&quot;&gt;&lt;b&gt;NivelDif&lt;/b&gt;&lt;/p&gt;&lt;hr&gt;&lt;p style=&quot;margin:0px;margin-left:8px;&quot;&gt;principiante : String&lt;/p&gt;&lt;p style=&quot;margin:0px;margin-left:8px;&quot;&gt;intermedio : String&lt;/p&gt;&lt;p style=&quot;margin:0px;margin-left:8px;&quot;&gt;avanzado : String&lt;/p&gt;" style="verticalAlign=top;align=left;overflow=fill;fontSize=12;fontFamily=Helvetica;html=1;whiteSpace=wrap;" parent="1" vertex="1">
          <mxGeometry x="-493" y="328" width="160" height="90" as="geometry" />
        </mxCell>
        <mxCell id="KlgdOsuP6ALsgnAv96WD-9" value="" style="edgeStyle=orthogonalEdgeStyle;orthogonalLoop=1;jettySize=auto;html=1;rounded=0;exitX=-0.012;exitY=0.952;exitDx=0;exitDy=0;exitPerimeter=0;elbow=vertical;entryX=0;entryY=0.75;entryDx=0;entryDy=0;endArrow=none;endFill=0;" parent="1" source="_8dAansbCoHwlGRNZNpQ-70" target="_8dAansbCoHwlGRNZNpQ-70" edge="1">
          <mxGeometry width="80" relative="1" as="geometry">
            <mxPoint x="110" y="630" as="sourcePoint" />
            <mxPoint x="-30" y="600" as="targetPoint" />
            <Array as="points">
              <mxPoint x="-10" y="671" />
              <mxPoint x="-10" y="620" />
              <mxPoint x="60" y="620" />
            </Array>
          </mxGeometry>
        </mxCell>
        <mxCell id="KlgdOsuP6ALsgnAv96WD-11" value="&lt;font style=&quot;font-size: 13px;&quot;&gt;&lt;b&gt;*&lt;/b&gt;&lt;/font&gt;" style="edgeLabel;html=1;align=center;verticalAlign=middle;resizable=0;points=[];" parent="KlgdOsuP6ALsgnAv96WD-9" vertex="1" connectable="0">
          <mxGeometry x="-0.9124" relative="1" as="geometry">
            <mxPoint x="2" y="-5" as="offset" />
          </mxGeometry>
        </mxCell>
        <mxCell id="KlgdOsuP6ALsgnAv96WD-13" value="&amp;lt; Previa de" style="edgeLabel;html=1;align=center;verticalAlign=middle;resizable=0;points=[];rotation=270;" parent="KlgdOsuP6ALsgnAv96WD-9" vertex="1" connectable="0">
          <mxGeometry x="-0.1438" y="-3" relative="1" as="geometry">
            <mxPoint x="-23" y="6" as="offset" />
          </mxGeometry>
        </mxCell>
        <mxCell id="zCQgNo67m5IxYb0x_oaF-25" style="edgeStyle=orthogonalEdgeStyle;rounded=0;orthogonalLoop=1;jettySize=auto;html=1;entryX=0.149;entryY=0.019;entryDx=0;entryDy=0;entryPerimeter=0;endArrow=none;endFill=0;" parent="1" source="KlgdOsuP6ALsgnAv96WD-16" target="_8dAansbCoHwlGRNZNpQ-122" edge="1">
          <mxGeometry relative="1" as="geometry">
            <mxPoint x="-120.00000000000023" y="505" as="targetPoint" />
            <Array as="points">
              <mxPoint x="-120" y="520" />
              <mxPoint x="-120" y="772" />
            </Array>
          </mxGeometry>
        </mxCell>
        <mxCell id="zCQgNo67m5IxYb0x_oaF-26" value="&amp;lt; Crea" style="edgeLabel;html=1;align=center;verticalAlign=middle;resizable=0;points=[];rotation=270;" parent="zCQgNo67m5IxYb0x_oaF-25" vertex="1" connectable="0">
          <mxGeometry x="-0.0119" y="2" relative="1" as="geometry">
            <mxPoint x="-12" y="128" as="offset" />
          </mxGeometry>
        </mxCell>
        <mxCell id="zCQgNo67m5IxYb0x_oaF-27" value="&lt;b&gt;&lt;font style=&quot;font-size: 13px;&quot;&gt;1&lt;/font&gt;&lt;/b&gt;" style="edgeLabel;html=1;align=center;verticalAlign=middle;resizable=0;points=[];" parent="zCQgNo67m5IxYb0x_oaF-25" vertex="1" connectable="0">
          <mxGeometry x="-0.943" relative="1" as="geometry">
            <mxPoint y="15" as="offset" />
          </mxGeometry>
        </mxCell>
        <mxCell id="zCQgNo67m5IxYb0x_oaF-28" value="&lt;b&gt;&lt;font style=&quot;font-size: 14px;&quot;&gt;*&lt;/font&gt;&lt;/b&gt;" style="edgeLabel;html=1;align=center;verticalAlign=middle;resizable=0;points=[];" parent="zCQgNo67m5IxYb0x_oaF-25" vertex="1" connectable="0">
          <mxGeometry x="0.9162" y="-1" relative="1" as="geometry">
            <mxPoint x="-13" as="offset" />
          </mxGeometry>
        </mxCell>
        <mxCell id="zCQgNo67m5IxYb0x_oaF-29" style="edgeStyle=orthogonalEdgeStyle;rounded=0;orthogonalLoop=1;jettySize=auto;html=1;endArrow=none;endFill=0;" parent="1" source="KlgdOsuP6ALsgnAv96WD-16" target="_8dAansbCoHwlGRNZNpQ-126" edge="1">
          <mxGeometry relative="1" as="geometry" />
        </mxCell>
        <mxCell id="zCQgNo67m5IxYb0x_oaF-32" value="&lt;b&gt;&lt;font style=&quot;font-size: 13px;&quot;&gt;*&lt;/font&gt;&lt;/b&gt;" style="edgeLabel;html=1;align=center;verticalAlign=middle;resizable=0;points=[];" parent="zCQgNo67m5IxYb0x_oaF-29" vertex="1" connectable="0">
          <mxGeometry x="0.9463" y="-1" relative="1" as="geometry">
            <mxPoint x="-17" y="11" as="offset" />
          </mxGeometry>
        </mxCell>
        <mxCell id="zCQgNo67m5IxYb0x_oaF-33" value="&lt;b&gt;&lt;font style=&quot;font-size: 13px;&quot;&gt;1&lt;/font&gt;&lt;/b&gt;" style="edgeLabel;html=1;align=center;verticalAlign=middle;resizable=0;points=[];" parent="zCQgNo67m5IxYb0x_oaF-29" vertex="1" connectable="0">
          <mxGeometry x="-0.9491" y="-1" relative="1" as="geometry">
            <mxPoint x="5" y="-4" as="offset" />
          </mxGeometry>
        </mxCell>
        <mxCell id="KlgdOsuP6ALsgnAv96WD-16" value="Prof sabeId" style="html=1;whiteSpace=wrap;" parent="1" vertex="1">
          <mxGeometry x="85" y="490" width="110" height="30" as="geometry" />
        </mxCell>
        <mxCell id="KlgdOsuP6ALsgnAv96WD-18" value="" style="edgeStyle=none;orthogonalLoop=1;jettySize=auto;html=1;rounded=0;exitX=0.5;exitY=1;exitDx=0;exitDy=0;endArrow=none;endFill=0;" parent="1" source="KlgdOsuP6ALsgnAv96WD-16" target="_8dAansbCoHwlGRNZNpQ-70" edge="1">
          <mxGeometry width="80" relative="1" as="geometry">
            <mxPoint x="260" y="600" as="sourcePoint" />
            <mxPoint x="340" y="600" as="targetPoint" />
            <Array as="points" />
          </mxGeometry>
        </mxCell>
        <mxCell id="KlgdOsuP6ALsgnAv96WD-19" value="&lt;b&gt;&lt;font style=&quot;font-size: 13px;&quot;&gt;1&lt;/font&gt;&lt;/b&gt;" style="edgeLabel;html=1;align=center;verticalAlign=middle;resizable=0;points=[];" parent="KlgdOsuP6ALsgnAv96WD-18" vertex="1" connectable="0">
          <mxGeometry x="-0.5418" relative="1" as="geometry">
            <mxPoint x="10" as="offset" />
          </mxGeometry>
        </mxCell>
        <mxCell id="KlgdOsuP6ALsgnAv96WD-20" value="&lt;b&gt;&lt;font style=&quot;font-size: 13px;&quot;&gt;* o 0..1&lt;/font&gt;&lt;/b&gt;" style="edgeLabel;html=1;align=center;verticalAlign=middle;resizable=0;points=[];" parent="KlgdOsuP6ALsgnAv96WD-18" vertex="1" connectable="0">
          <mxGeometry x="0.4106" relative="1" as="geometry">
            <mxPoint x="30" y="4" as="offset" />
          </mxGeometry>
        </mxCell>
        <mxCell id="KlgdOsuP6ALsgnAv96WD-23" value="&lt;p style=&quot;margin:0px;margin-top:4px;text-align:center;text-decoration:underline;&quot;&gt;&lt;b&gt;&amp;lt;&amp;lt;datatype&amp;gt;&amp;gt;&lt;/b&gt;&lt;/p&gt;&lt;p style=&quot;margin:0px;margin-top:4px;text-align:center;text-decoration:underline;&quot;&gt;&lt;b&gt;date&lt;/b&gt;&lt;/p&gt;&lt;hr&gt;&lt;p style=&quot;margin:0px;margin-left:8px;&quot;&gt;dia : Int&lt;/p&gt;&lt;p style=&quot;margin:0px;margin-left:8px;&quot;&gt;mes : Int&lt;/p&gt;&lt;p style=&quot;margin:0px;margin-left:8px;&quot;&gt;a침o : Int&lt;/p&gt;" style="verticalAlign=top;align=left;overflow=fill;fontSize=12;fontFamily=Helvetica;html=1;whiteSpace=wrap;" parent="1" vertex="1">
          <mxGeometry x="-494" y="190" width="160" height="100" as="geometry" />
        </mxCell>
        <mxCell id="zCQgNo67m5IxYb0x_oaF-14" style="edgeStyle=orthogonalEdgeStyle;rounded=0;orthogonalLoop=1;jettySize=auto;html=1;dashed=1;endArrow=none;endFill=0;" parent="1" source="KlgdOsuP6ALsgnAv96WD-27" edge="1">
          <mxGeometry relative="1" as="geometry">
            <mxPoint x="-50" y="1020" as="targetPoint" />
          </mxGeometry>
        </mxCell>
        <mxCell id="KlgdOsuP6ALsgnAv96WD-27" value="&lt;p style=&quot;margin:0px;margin-top:4px;text-align:center;text-decoration:underline;&quot;&gt;&lt;b&gt;C-E-L-E&lt;/b&gt;&lt;/p&gt;&lt;hr&gt;&lt;p style=&quot;margin:0px;margin-left:8px;&quot;&gt;Aprobado : Bool&lt;/p&gt;" style="verticalAlign=top;align=left;overflow=fill;fontSize=12;fontFamily=Helvetica;html=1;whiteSpace=wrap;" parent="1" vertex="1">
          <mxGeometry x="30" y="1090" width="160" height="60" as="geometry" />
        </mxCell>
        <mxCell id="KlgdOsuP6ALsgnAv96WD-30" value="???&lt;br&gt;" style="text;html=1;align=center;verticalAlign=middle;resizable=0;points=[];autosize=1;strokeColor=none;fillColor=none;" parent="1" vertex="1">
          <mxGeometry x="1150" y="865" width="40" height="30" as="geometry" />
        </mxCell>
        <mxCell id="zCQgNo67m5IxYb0x_oaF-3" value="" style="edgeStyle=none;orthogonalLoop=1;jettySize=auto;html=1;rounded=0;endArrow=none;endFill=0;" parent="1" source="_8dAansbCoHwlGRNZNpQ-106" target="_8dAansbCoHwlGRNZNpQ-122" edge="1">
          <mxGeometry width="80" relative="1" as="geometry">
            <mxPoint x="-10" y="930" as="sourcePoint" />
            <mxPoint x="70" y="930" as="targetPoint" />
            <Array as="points" />
          </mxGeometry>
        </mxCell>
        <mxCell id="zCQgNo67m5IxYb0x_oaF-6" value="{Ordered}&lt;br&gt;" style="edgeLabel;html=1;align=center;verticalAlign=middle;resizable=0;points=[];rotation=0;" parent="zCQgNo67m5IxYb0x_oaF-3" vertex="1" connectable="0">
          <mxGeometry x="-0.4377" y="2" relative="1" as="geometry">
            <mxPoint x="-97" y="-17" as="offset" />
          </mxGeometry>
        </mxCell>
        <mxCell id="zCQgNo67m5IxYb0x_oaF-15" value="&lt;b&gt;&lt;font style=&quot;font-size: 13px;&quot;&gt;*&lt;/font&gt;&lt;/b&gt;" style="edgeLabel;html=1;align=center;verticalAlign=middle;resizable=0;points=[];" parent="zCQgNo67m5IxYb0x_oaF-3" vertex="1" connectable="0">
          <mxGeometry x="0.7693" y="-1" relative="1" as="geometry">
            <mxPoint x="-12" y="-4" as="offset" />
          </mxGeometry>
        </mxCell>
        <mxCell id="zCQgNo67m5IxYb0x_oaF-16" value="&lt;font style=&quot;font-size: 13px;&quot;&gt;&lt;b&gt;1&lt;/b&gt;&lt;/font&gt;" style="edgeLabel;html=1;align=center;verticalAlign=middle;resizable=0;points=[];" parent="zCQgNo67m5IxYb0x_oaF-3" vertex="1" connectable="0">
          <mxGeometry x="-0.8031" y="-2" relative="1" as="geometry">
            <mxPoint x="9" y="-13" as="offset" />
          </mxGeometry>
        </mxCell>
        <mxCell id="zCQgNo67m5IxYb0x_oaF-4" value="" style="edgeStyle=none;orthogonalLoop=1;jettySize=auto;html=1;rounded=0;endArrow=none;endFill=0;dashed=1;" parent="1" source="zCQgNo67m5IxYb0x_oaF-5" edge="1">
          <mxGeometry width="80" relative="1" as="geometry">
            <mxPoint x="-10" y="930" as="sourcePoint" />
            <mxPoint x="120" y="820" as="targetPoint" />
            <Array as="points" />
          </mxGeometry>
        </mxCell>
        <mxCell id="zCQgNo67m5IxYb0x_oaF-5" value="&lt;p style=&quot;margin:0px;margin-top:4px;text-align:center;text-decoration:underline;&quot;&gt;&lt;b&gt;C-E-L&lt;/b&gt;&lt;/p&gt;&lt;hr&gt;&lt;p style=&quot;margin:0px;margin-left:8px;&quot;&gt;Aprobado : Bool&lt;/p&gt;" style="verticalAlign=top;align=left;overflow=fill;fontSize=12;fontFamily=Helvetica;html=1;whiteSpace=wrap;" parent="1" vertex="1">
          <mxGeometry x="40" y="950" width="160" height="90" as="geometry" />
        </mxCell>
        <mxCell id="zCQgNo67m5IxYb0x_oaF-7" value="" style="edgeStyle=none;orthogonalLoop=1;jettySize=auto;html=1;rounded=0;exitX=0;exitY=0.75;exitDx=0;exitDy=0;entryX=1;entryY=0.5;entryDx=0;entryDy=0;endArrow=none;endFill=0;" parent="1" source="zCQgNo67m5IxYb0x_oaF-5" target="_8dAansbCoHwlGRNZNpQ-126" edge="1">
          <mxGeometry width="80" relative="1" as="geometry">
            <mxPoint x="50" y="980" as="sourcePoint" />
            <mxPoint x="130" y="980" as="targetPoint" />
            <Array as="points" />
          </mxGeometry>
        </mxCell>
        <mxCell id="zCQgNo67m5IxYb0x_oaF-36" value="&lt;b&gt;&lt;font style=&quot;font-size: 13px;&quot;&gt;1..*&lt;/font&gt;&lt;/b&gt;" style="edgeLabel;html=1;align=center;verticalAlign=middle;resizable=0;points=[];" parent="zCQgNo67m5IxYb0x_oaF-7" vertex="1" connectable="0">
          <mxGeometry x="0.7976" y="-1" relative="1" as="geometry">
            <mxPoint x="-4" y="-13" as="offset" />
          </mxGeometry>
        </mxCell>
        <mxCell id="zCQgNo67m5IxYb0x_oaF-37" value="&lt;b&gt;&lt;font style=&quot;font-size: 13px;&quot;&gt;1&lt;/font&gt;&lt;/b&gt;" style="edgeLabel;html=1;align=center;verticalAlign=middle;resizable=0;points=[];" parent="zCQgNo67m5IxYb0x_oaF-7" vertex="1" connectable="0">
          <mxGeometry x="-0.7343" relative="1" as="geometry">
            <mxPoint x="8" y="-8" as="offset" />
          </mxGeometry>
        </mxCell>
        <mxCell id="zCQgNo67m5IxYb0x_oaF-17" value="" style="edgeStyle=none;orthogonalLoop=1;jettySize=auto;html=1;rounded=0;endArrow=diamondThin;endFill=1;endSize=24;" parent="1" source="_8dAansbCoHwlGRNZNpQ-122" edge="1">
          <mxGeometry width="80" relative="1" as="geometry">
            <mxPoint x="-140" y="760" as="sourcePoint" />
            <mxPoint x="150" y="680" as="targetPoint" />
            <Array as="points">
              <mxPoint x="-60" y="740" />
              <mxPoint x="150" y="740" />
            </Array>
          </mxGeometry>
        </mxCell>
        <mxCell id="zCQgNo67m5IxYb0x_oaF-38" value="{Ordered}" style="edgeLabel;html=1;align=center;verticalAlign=middle;resizable=0;points=[];rotation=270;" parent="zCQgNo67m5IxYb0x_oaF-17" vertex="1" connectable="0">
          <mxGeometry x="-0.3486" y="1" relative="1" as="geometry">
            <mxPoint x="-88" y="1" as="offset" />
          </mxGeometry>
        </mxCell>
        <mxCell id="zCQgNo67m5IxYb0x_oaF-39" value="&lt;b&gt;&lt;font style=&quot;font-size: 13px;&quot;&gt;1&lt;/font&gt;&lt;/b&gt;" style="edgeLabel;html=1;align=center;verticalAlign=middle;resizable=0;points=[];" parent="zCQgNo67m5IxYb0x_oaF-17" vertex="1" connectable="0">
          <mxGeometry x="0.9049" relative="1" as="geometry">
            <mxPoint x="-20" y="-4" as="offset" />
          </mxGeometry>
        </mxCell>
        <mxCell id="zCQgNo67m5IxYb0x_oaF-40" value="&lt;b&gt;&lt;font style=&quot;font-size: 13px;&quot;&gt;*&lt;/font&gt;&lt;/b&gt;" style="edgeLabel;html=1;align=center;verticalAlign=middle;resizable=0;points=[];" parent="zCQgNo67m5IxYb0x_oaF-17" vertex="1" connectable="0">
          <mxGeometry x="-0.6646" y="1" relative="1" as="geometry">
            <mxPoint x="-10" y="21" as="offset" />
          </mxGeometry>
        </mxCell>
        <mxCell id="zCQgNo67m5IxYb0x_oaF-18" value="" style="edgeStyle=none;orthogonalLoop=1;jettySize=auto;html=1;rounded=0;endArrow=diamondThin;endFill=1;endSize=24;entryX=0.25;entryY=1;entryDx=0;entryDy=0;" parent="1" source="_8dAansbCoHwlGRNZNpQ-126" target="_8dAansbCoHwlGRNZNpQ-122" edge="1">
          <mxGeometry width="80" relative="1" as="geometry">
            <mxPoint x="-100" y="820" as="sourcePoint" />
            <mxPoint x="120" y="680" as="targetPoint" />
            <Array as="points" />
          </mxGeometry>
        </mxCell>
        <mxCell id="zCQgNo67m5IxYb0x_oaF-21" value="&lt;b&gt;&lt;font style=&quot;font-size: 13px;&quot;&gt;1&lt;/font&gt;&lt;/b&gt;" style="edgeLabel;html=1;align=center;verticalAlign=middle;resizable=0;points=[];" parent="zCQgNo67m5IxYb0x_oaF-18" vertex="1" connectable="0">
          <mxGeometry x="0.4186" y="-3" relative="1" as="geometry">
            <mxPoint x="-7" y="-27" as="offset" />
          </mxGeometry>
        </mxCell>
        <mxCell id="zCQgNo67m5IxYb0x_oaF-22" value="&lt;b&gt;&lt;font style=&quot;font-size: 13px;&quot;&gt;1..*&lt;/font&gt;&lt;/b&gt;" style="edgeLabel;html=1;align=center;verticalAlign=middle;resizable=0;points=[];" parent="zCQgNo67m5IxYb0x_oaF-18" vertex="1" connectable="0">
          <mxGeometry x="-0.8792" relative="1" as="geometry">
            <mxPoint x="-17" y="-3" as="offset" />
          </mxGeometry>
        </mxCell>
        <mxCell id="qFmgtwC4_mPJR1CMx5l8-5" value="" style="endArrow=none;html=1;rounded=0;entryX=0.25;entryY=1;entryDx=0;entryDy=0;" parent="1" source="_8dAansbCoHwlGRNZNpQ-70" target="_8dAansbCoHwlGRNZNpQ-55" edge="1">
          <mxGeometry width="50" height="50" relative="1" as="geometry">
            <mxPoint x="380" y="630" as="sourcePoint" />
            <mxPoint x="430" y="580" as="targetPoint" />
            <Array as="points">
              <mxPoint x="480" y="630" />
            </Array>
          </mxGeometry>
        </mxCell>
        <mxCell id="qFmgtwC4_mPJR1CMx5l8-6" value="&lt;b&gt;&amp;lt; Mira&lt;/b&gt;" style="edgeLabel;html=1;align=center;verticalAlign=middle;resizable=0;points=[];" parent="qFmgtwC4_mPJR1CMx5l8-5" vertex="1" connectable="0">
          <mxGeometry x="-0.1956" y="2" relative="1" as="geometry">
            <mxPoint x="-23" y="-8" as="offset" />
          </mxGeometry>
        </mxCell>
      </root>
    </mxGraphModel>
  </diagram>
</mxfile>
